<svg width="20" height="20" viewBox="0 0 20 20" fill="none" xmlns="http://www.w3.org/2000/svg">
<path fill-rule="evenodd" clip-rule="evenodd" d="M9.83696 2.5C13.799 2.5 17.5 5.68741 17.5 10.1705C17.5 14.3126 14.1251 17.5 9.83696 17.5C5.87491 17.5 2.5 14.483 2.5 10C2.5 5.85786 5.54883 2.5 9.83696 2.5ZM13.5418 15.0685C13.3343 14.7332 13.3093 14.316 13.4754 13.9583L13.7602 13.3447C13.868 13.1124 13.868 12.8444 13.7602 12.6121C13.6408 12.355 13.4037 12.1722 13.1247 12.1221L13.0054 12.1007C12.6784 12.042 12.3953 11.8391 12.2346 11.5483L12.0277 11.1739C11.7768 10.7199 11.7476 10.176 11.9485 9.69774C12.1584 9.19786 12.5948 8.82857 13.1225 8.70423L13.3615 8.64791C13.734 8.56013 14.1231 8.57211 14.4896 8.68262L14.5553 8.70245C14.9881 8.83299 15.4488 8.84036 15.8855 8.72374L16.0377 8.68311C15.9346 8.21544 15.7829 7.77516 15.588 7.36565L15.2893 7.59987C15.1497 7.70934 14.955 7.71482 14.8094 7.61338L14.7194 7.55065C14.6277 7.48675 14.5884 7.37059 14.6223 7.26412L14.6425 7.20085C14.6849 7.06774 14.5856 6.93182 14.4459 6.93182C14.4171 6.93182 14.3886 6.93786 14.3622 6.94954L13.3272 7.40863C13.2548 7.44077 13.1873 7.48316 13.1269 7.53449L12.9395 7.69364C12.7472 7.85701 12.4663 7.8617 12.2687 7.70484C12.0839 7.55818 12.0186 7.30683 12.1088 7.08882L12.267 6.70615C12.3434 6.52138 12.2512 6.31011 12.0637 6.24049C11.8456 6.15945 11.7642 5.89308 11.8999 5.70396L11.9818 5.5897C12.0683 5.46919 12.2075 5.39773 12.3558 5.39773H12.4743C12.6642 5.39773 12.8457 5.3196 12.9762 5.1817L13.286 4.85434C12.0164 4.10301 10.4517 3.79812 8.98975 4.00989L9.73845 5.16475C9.87293 5.37217 9.78149 5.65078 9.55027 5.73818C9.4288 5.78409 9.3384 5.88777 9.30946 6.01436L9.15879 6.67332C9.0704 7.05991 8.84556 7.40166 8.52554 7.63585L7.76359 8.19346C7.5217 8.37049 7.22972 8.46591 6.92997 8.46591H6.87002C6.47822 8.46591 6.10775 8.64437 5.86354 8.95074C5.59563 9.28685 5.51317 9.7345 5.64374 10.144L5.66458 10.2094C5.71817 10.3774 5.62562 10.5686 5.44939 10.5603C4.51647 10.5168 4.13474 8.67214 4.1607 7.95455C3.93064 8.59105 3.80435 9.27908 3.80435 10C3.80435 13.3334 6.50439 16.046 9.67767 16.1342C9.55956 15.6949 9.29182 15.3107 8.92067 15.0478L8.79994 14.9622C8.53644 14.7756 8.2215 14.6753 7.89859 14.6753C7.51019 14.6753 7.13578 14.5304 6.84863 14.2688L6.50903 13.9595C6.19218 13.671 6.01159 13.2622 6.01159 12.8337V12.617C6.01159 12.2034 6.23357 11.8217 6.59299 11.6172C6.6899 11.5621 6.77828 11.4932 6.85536 11.4126L7.09117 11.1661C7.17873 11.0745 7.29991 11.0227 7.42659 11.0227H7.67355C7.77094 11.0227 7.85259 11.0963 7.86268 11.1932C7.87277 11.2901 7.95442 11.3636 8.05181 11.3636L9.05559 11.3636C9.32897 11.3636 9.58313 11.5042 9.72842 11.7358C9.8151 11.8739 9.9422 11.9821 10.0925 12.0455L10.2611 12.1166C10.8671 12.3723 11.207 13.0213 11.0722 13.665L10.5623 16.099C11.6312 15.9887 12.6614 15.636 13.5418 15.0685Z" fill="#9FA2A4"/>
</svg>
