<svg width="24" height="24" viewBox="0 0 24 24" fill="none" xmlns="http://www.w3.org/2000/svg">
<path fill-rule="evenodd" clip-rule="evenodd" d="M3.24236 11.8312C7.90669 9.79901 11.017 8.45928 12.5732 7.81199C17.0166 5.96384 17.9399 5.64279 18.5417 5.63219C18.674 5.62986 18.97 5.66266 19.1617 5.81821C19.3235 5.94956 19.3681 6.12699 19.3894 6.25151C19.4107 6.37604 19.4372 6.65972 19.4161 6.88138C19.1753 9.41136 18.1335 15.5509 17.6034 18.3846C17.3791 19.5836 16.9375 19.9856 16.51 20.0249C15.5808 20.1104 14.8752 19.4109 13.9753 18.821C12.5671 17.8979 11.7716 17.3233 10.4047 16.4225C8.82495 15.3815 9.84901 14.8093 10.7493 13.8743C10.9849 13.6296 15.0787 9.90589 15.158 9.56809C15.1679 9.52584 15.1771 9.36837 15.0835 9.28521C14.99 9.20206 14.8519 9.23049 14.7522 9.25311C14.611 9.28517 12.3614 10.7721 8.00336 13.7139C7.36481 14.1524 6.78643 14.366 6.26822 14.3548C5.69694 14.3425 4.59802 14.0318 3.78109 13.7662C2.77909 13.4405 1.98272 13.2683 2.05206 12.7152C2.08818 12.427 2.48495 12.1324 3.24236 11.8312Z" fill="white"/>
</svg>
