<svg width="20" height="20" viewBox="0 0 20 20" fill="none" xmlns="http://www.w3.org/2000/svg">
<path fill-rule="evenodd" clip-rule="evenodd" d="M2.70246 9.85928C6.58939 8.1658 9.18129 7.04936 10.4782 6.50995C14.181 4.96982 14.9504 4.70229 15.4519 4.69345C15.5622 4.69151 15.8088 4.71885 15.9685 4.84847C16.1034 4.95792 16.1405 5.10578 16.1583 5.20955C16.1761 5.31333 16.1982 5.54973 16.1806 5.73444C15.9799 7.84276 15.1117 12.9591 14.67 15.3204C14.4831 16.3196 14.1151 16.6546 13.7588 16.6874C12.9845 16.7587 12.3965 16.1757 11.6466 15.6841C10.4731 14.9149 9.81012 14.436 8.67103 13.6854C7.35462 12.8179 8.20799 12.3411 8.95822 11.5619C9.15455 11.3579 12.5661 8.25487 12.6321 7.97337C12.6404 7.93816 12.6481 7.80693 12.5701 7.73764C12.4921 7.66834 12.3771 7.69204 12.294 7.71088C12.1763 7.7376 10.3016 8.9767 6.66995 11.4282C6.13783 11.7936 5.65585 11.9716 5.22401 11.9623C4.74794 11.952 3.83217 11.6931 3.15139 11.4718C2.31639 11.2004 1.65275 11.0569 1.71054 10.5959C1.74064 10.3558 2.07128 10.1103 2.70246 9.85928Z" fill="#9FA2A4"/>
</svg>
